<?xml version="1.0" encoding="UTF-8" standalone="no"?>
<!-- Created with Inkscape (http://www.inkscape.org/) -->
<svg xmlns:rdf="http://www.w3.org/1999/02/22-rdf-syntax-ns#" xmlns="http://www.w3.org/2000/svg" xmlns:cc="http://web.resource.org/cc/" xmlns:dc="http://purl.org/dc/elements/1.1/" xmlns:svg="http://www.w3.org/2000/svg" xmlns:inkscape="http://www.inkscape.org/namespaces/inkscape" xmlns:sodipodi="http://sodipodi.sourceforge.net/DTD/sodipodi-0.dtd" xmlns:ns1="http://sozi.baierouge.fr" xmlns:xlink="http://www.w3.org/1999/xlink" id="svg12747" viewBox="0 0 50 225" version="1.0" inkscape:version="0.91 r13725">
  <g id="layer1">
    <g id="g19422">
      <g id="g14761" style="fill:#cf142b" transform="matrix(.54558 0 0 1.8511 11.607 -34.301)">
        <path id="path13003" style="fill-rule:evenodd;stroke:#000000;stroke-width:.52873;fill:#cf142b" d="m34.911 132.14a7.3214 1.4286 0 1 1 -14.643 0 7.3214 1.4286 0 1 1 14.643 0z" transform="matrix(.49027 -.086448 .077983 .44226 1.1597 78.261)"/>
        <path id="path13001" style="fill-rule:evenodd;stroke:#000000;stroke-width:.39187;fill:#cf142b" d="m34.911 132.14a7.3214 1.4286 0 1 1 -14.643 0 7.3214 1.4286 0 1 1 14.643 0z" transform="matrix(.65619 -.11570 .10607 .60155 -7.1292 56.62)"/>
        <path id="path12999" style="fill-rule:evenodd;stroke:#000000;stroke-width:.31097;fill:#cf142b" d="m34.911 132.14a7.3214 1.4286 0 1 1 -14.643 0 7.3214 1.4286 0 1 1 14.643 0z" transform="matrix(.82237 -.14501 .13440 .76223 -15.458 34.732)"/>
        <path id="path12997" style="fill-rule:evenodd;stroke:#000000;stroke-width:.25759;fill:#cf142b" d="m34.911 132.14a7.3214 1.4286 0 1 1 -14.643 0 7.3214 1.4286 0 1 1 14.643 0z" transform="matrix(.98874 -.17434 .16291 .92391 -23.815 12.261)"/>
        <path id="path12995" style="fill-rule:evenodd;stroke:#000000;stroke-width:.22008;fill:#cf142b" d="m34.911 132.14a7.3214 1.4286 0 1 1 -14.643 0 7.3214 1.4286 0 1 1 14.643 0z" transform="matrix(1.1537 -.20342 .19128 1.0848 -32.114 -10.509)"/>
        <path id="path12993" style="fill-rule:evenodd;stroke:#000000;stroke-width:.19139;fill:#cf142b" d="m34.911 132.14a7.3214 1.4286 0 1 1 -14.643 0 7.3214 1.4286 0 1 1 14.643 0z" transform="matrix(1.2628 -.22266 .21053 1.194 -38.111 -26.61)"/>
        <path id="path13007" style="fill-rule:evenodd;stroke:#000000;stroke-width:.19139;fill:#cf142b" d="m34.911 132.14a7.3214 1.4286 0 1 1 -14.643 0 7.3214 1.4286 0 1 1 14.643 0z" transform="matrix(1.3952 -0.246 .23260 1.3191 -44.679 -45.256)"/>
        <path id="path14755" style="fill-rule:evenodd;stroke:#000000;stroke-width:.19139;fill:#cf142b" d="m34.911 132.14a7.3214 1.4286 0 1 1 -14.643 0 7.3214 1.4286 0 1 1 14.643 0z" transform="matrix(1.4553 -.25661 .24263 1.376 -47.664 -54.815)"/>
        <path id="path14757" style="fill-rule:evenodd;stroke:#000000;stroke-width:.19139;fill:#cf142b" d="m34.911 132.14a7.3214 1.4286 0 1 1 -14.643 0 7.3214 1.4286 0 1 1 14.643 0z" transform="matrix(1.4674 -.25874 .24464 1.3874 -48.261 -58.594)"/>
        <path id="path14759" style="fill-rule:evenodd;stroke:#000000;stroke-width:.19139;fill:#cf142b" d="m34.911 132.14a7.3214 1.4286 0 1 1 -14.643 0 7.3214 1.4286 0 1 1 14.643 0z" transform="matrix(1.3952 -0.246 .23260 1.3191 -44.679 -52.258)"/>
      </g>
      <g id="g19146" transform="matrix(.76036 0 0 .76494 5.991 110.15)">
        <path id="path12871" style="fill-rule:evenodd;stroke:#000000;stroke-width:0.284;fill:#f7d917" d="m32.5 142.5a7.5 7.5 0 1 1 -15 0 7.5 7.5 0 1 1 15 0z"/>
        <path id="path12873" style="fill-rule:evenodd;stroke:#000000;stroke-width:0.284;fill:#231002" d="m28.5 142.5a3.5 3.5 0 1 1 -7 0 3.5 3.5 0 1 1 7 0z"/>
      </g>
      <g id="g19142" transform="matrix(.61628 0 0 1.5763 9.5929 .14159)">
        <path id="path14773" style="fill-rule:evenodd;stroke:#000000;stroke-width:0.3;fill:#ffffff" d="m15 114h10v-114l-5 5-5 109z"/>
        <path id="path19140" style="fill-rule:evenodd;stroke:#000000;stroke-width:0.3;fill:#9d9d9d" d="m35 114h-10v-114l5 5 5 109z"/>
      </g>
      <path id="path12875" style="fill-rule:evenodd;stroke:#000000;stroke-width:.29910;fill:#f7d917" d="m3.318 174.71c-1.7746 0.16-3.1684 1.68-3.1684 3.5-0.00005 1.84 1.4039 3.37 3.1994 3.5h0.0622 0.528 42.122 0.031c0.088 0.01 0.189 0 0.279 0 1.921 0 3.479-1.56 3.479-3.5 0-1.93-1.558-3.5-3.479-3.5-1.92 0-3.479 1.57-3.479 3.5 0 0.64 0.173 1.24 0.466 1.75h-36.716c0.2931-0.51 0.4657-1.11 0.4657-1.75 0-1.93-1.5586-3.5-3.4791-3.5-0.105 0-0.208-0.01-0.3106 0z"/>
    </g>
  </g>
  <metadata>
    <rdf:RDF>
      <cc:Work>
        <dc:format>image/svg+xml</dc:format>
        <dc:type rdf:resource="http://purl.org/dc/dcmitype/StillImage"/>
        <cc:license rdf:resource="http://creativecommons.org/licenses/publicdomain/"/>
        <dc:publisher>
          <cc:Agent rdf:about="http://openclipart.org/">
            <dc:title>Openclipart</dc:title>
          </cc:Agent>
        </dc:publisher>
        <dc:title>Sword</dc:title>
        <dc:date>2007-02-07T07:07:23</dc:date>
        <dc:description>sword from wikimedia commons : http://commons.wikimedia.org/wiki/Image:Sword.svg</dc:description>
        <dc:source>https://openclipart.org/detail/3057/sword-by-zeimusu</dc:source>
        <dc:creator>
          <cc:Agent>
            <dc:title>zeimusu</dc:title>
          </cc:Agent>
        </dc:creator>
        <dc:subject>
          <rdf:Bag>
            <rdf:li>externalsource</rdf:li>
            <rdf:li>heraldry</rdf:li>
            <rdf:li>sword</rdf:li>
            <rdf:li>weapon</rdf:li>
            <rdf:li>wikimedia commons</rdf:li>
          </rdf:Bag>
        </dc:subject>
      </cc:Work>
      <cc:License rdf:about="http://creativecommons.org/licenses/publicdomain/">
        <cc:permits rdf:resource="http://creativecommons.org/ns#Reproduction"/>
        <cc:permits rdf:resource="http://creativecommons.org/ns#Distribution"/>
        <cc:permits rdf:resource="http://creativecommons.org/ns#DerivativeWorks"/>
      </cc:License>
    </rdf:RDF>
  </metadata>
</svg>
